<svg width="900" height="900" viewBox="0 0 900 900" fill="none" xmlns="http://www.w3.org/2000/svg">
  <rect width="900" height="900" fill="#E6EFE5"/>
  <rect x="52" y="52" width="796" height="796" rx="40" fill="url(#paint0_linear)"/>
  <circle cx="614" cy="242" r="160" fill="#F8FBF6" fill-opacity="0.72"/>
  <path d="M168 730C266 616 360 560 456 560C554 560 648 616 732 730V848H168V730Z" fill="#DDE8D6"/>
  <path d="M248 230C308 184 374 162 448 162C556 162 636 230 636 320C636 414 564 486 468 486C376 486 294 412 248 230Z" fill="#FBFDF9" fill-opacity="0.58"/>
  <path d="M132 644C270 622 414 610 566 610C646 610 720 614 786 622" stroke="#F5FAF4" stroke-width="14" stroke-linecap="round" opacity="0.48"/>
  <text x="118" y="144" fill="#F9FCF8" font-family="Georgia, serif" font-size="36" letter-spacing="0.28em">CAMPO</text>
  <text x="118" y="798" fill="#495245" font-family="Georgia, serif" font-size="82">ar livre</text>
  <defs>
    <linearGradient id="paint0_linear" x1="450" y1="52" x2="450" y2="848" gradientUnits="userSpaceOnUse">
      <stop stop-color="#C8D8C4"/>
      <stop offset="1" stop-color="#7E9A73"/>
    </linearGradient>
  </defs>
</svg>
